<?xml version="1.0" standalone="no"?>
<!DOCTYPE svg PUBLIC "-//W3C//DTD SVG 1.1//EN" "http://www.w3.org/Graphics/SVG/1.1/DTD/svg11.dtd" >
<svg xmlns="http://www.w3.org/2000/svg" xmlns:xlink="http://www.w3.org/1999/xlink" version="1.1">
<metadata></metadata>
<defs>
<font id="cute_tattooregular" horiz-adv-x="972" >
<font-face units-per-em="2048" ascent="1638" descent="-410" />
<missing-glyph horiz-adv-x="569" />
<glyph horiz-adv-x="0" />
<glyph unicode="&#xd;" horiz-adv-x="569" />
<glyph unicode=" "  horiz-adv-x="569" />
<glyph unicode="&#x09;" horiz-adv-x="569" />
<glyph unicode="&#xa0;" horiz-adv-x="569" />
<glyph unicode="!" horiz-adv-x="279" d="M30 271v12q0 23 69 34v11l11 264q0 57 -57 68v12q0 28 46 34l11 309v114l-57 -11l-23 23v23q0 20 103 34q126 -17 126 -46l-80 -46l-12 -308v-92q50 0 69 -46l-69 -23l12 -251v-69l91 -23v-23l-23 -23h-137l-57 -11zM64 100v22q7 35 92 35h23l34 -35q0 -88 -57 -114h-34 q-58 29 -58 92z" />
<glyph unicode="&#x22;" horiz-adv-x="727" />
<glyph unicode="#" horiz-adv-x="1371" />
<glyph unicode="$" horiz-adv-x="1233" />
<glyph unicode="%" horiz-adv-x="1955" />
<glyph unicode="&#x26;" horiz-adv-x="1700" />
<glyph unicode="'" horiz-adv-x="369" />
<glyph unicode="(" horiz-adv-x="496" d="M30 560l27 36h53q74 528 295 598q54 -18 54 -98v-27l-27 -27h-9q-27 0 -27 81q-96 -36 -187 -286l-36 -232h53l18 -18v-27l-18 -18h-53v-17q11 -367 232 -465v9l-9 81l9 9h36l18 -18v-27l-9 -36l17 -71l-26 -18h-9q-113 0 -241 196l-81 349q-80 7 -80 26z" />
<glyph unicode=")" horiz-adv-x="502" d="M20 1176l54 18h8q91 0 224 -223l71 -330q80 0 80 -27q-13 -36 -26 -36h-54v-9q-69 -428 -125 -428q-84 -152 -170 -152h-8q-45 23 -45 71v45l27 27h18l26 -36l-9 -45q139 87 215 358l26 160l-26 9l-36 -9l-27 27v18l27 27h45v44q0 310 -215 438q-9 -107 -26 -107h-27 q-18 0 -18 26l9 63z" />
<glyph unicode="*" horiz-adv-x="1039" />
<glyph unicode="+" horiz-adv-x="1603" />
<glyph unicode="," horiz-adv-x="260" d="M53 111q10 98 98 98h12q43 0 60 -135v-12q0 -66 -60 -97l-24 25v61q-86 0 -86 60z" />
<glyph unicode="-" horiz-adv-x="1047" />
<glyph unicode="." horiz-adv-x="316" d="M83 92v77q21 62 139 62l46 -62v-16q-12 -123 -107 -123q-71 29 -78 62z" />
<glyph unicode="/" horiz-adv-x="876" />
<glyph unicode="0" horiz-adv-x="974" d="M40 531q0 45 87 55q0 363 210 520q50 82 148 82h49q192 0 309 -301q23 -253 83 -308v-27q-83 -25 -83 -186q-32 0 -37 -109q-22 0 -99 -151q-100 -109 -161 -109h-98q-130 0 -272 219l-49 219v55q-80 0 -87 41zM188 503q0 -143 87 -232l-37 -27q123 -179 222 -179h37 q164 0 285 370l12 96h-12q-75 0 -75 42q0 28 112 54q0 374 -247 493h-75q-112 0 -284 -274l13 -13v-42q-26 -23 -38 -192q99 0 99 -41q-27 -55 -99 -55z" />
<glyph unicode="1" horiz-adv-x="381" d="M33 1043v15q9 30 223 134l15 -15l-30 -119l15 -164v-178q59 -7 59 -44v-15q0 -30 -59 -30l-15 -15v-15l44 -386l-14 -89q74 -19 74 -45v-15q0 -44 -208 -44q-74 19 -74 44l14 15q0 30 104 30l15 74v89l-29 164v193q-75 0 -75 30q0 44 89 44l-14 357l-119 -30z" />
<glyph unicode="2" horiz-adv-x="693" d="M44 1003v62q0 68 398 122q169 0 129 -199q0 -100 -133 -276l-46 -107h61v-30q20 -22 -133 -92l-184 -383l77 -15l306 30h30q8 184 46 184h16l30 -31v-76l16 -153l-16 -16h-15l-214 16l-322 -31q-61 15 -41 61q46 63 101 230l78 199q0 31 -61 31l-16 15v15l46 46h16 l76 -15q230 345 230 475q0 30 -56 50q-342 -20 -342 -127v-31h-31z" />
<glyph unicode="3" horiz-adv-x="928" d="M37 220v15l45 45h107l30 -30v-15q0 -31 -45 -31q0 -87 106 -122l61 16l76 -16q225 87 305 198q-61 0 -61 31v15q0 46 91 46v15q-77 259 -441 259q-168 0 -168 46q0 27 457 395h-61l-182 -15l-183 15h-15l-61 -106h-46q0 198 107 198h182q366 0 366 -61 q-92 -145 -427 -381v-15h198q193 0 366 -335l45 -46q-282 -335 -548 -335q-228 28 -228 137q0 61 -76 77z" />
<glyph unicode="4" horiz-adv-x="843" d="M37 880v15q0 30 75 30l15 105v60l-75 75v30h105q111 0 120 -45v-15q0 -30 -75 -30v-165q60 0 60 -30q-90 -48 -90 -120v-90q0 -51 285 -60q181 0 181 105v75l-30 45v30l30 45v135q-120 18 -120 60l30 30l75 -15l180 30l30 -45q0 -45 -90 -45l-15 -150q45 0 45 -30v-15 l-45 -45l-60 -750h75l30 -30q0 -42 -150 -60q-196 19 -196 75q30 30 121 30q60 158 60 450l-15 15l-226 -15h-15q-255 9 -255 90v195q-60 0 -60 30z" />
<glyph unicode="5" horiz-adv-x="984" d="M43 311q0 49 224 59l15 -15v-44q0 -30 -60 -30v-60q0 -120 134 -120h90l60 15l15 -15h15q128 0 268 254v15q-74 19 -74 45v15q0 30 74 30v89q-65 254 -253 254h-30l-314 -59l-30 29q48 404 150 404l418 15l15 -15v-15q-69 -150 -90 -150h-15l-45 45v15l15 15v15h-254 q-24 0 -74 -239h30l164 30h75q296 0 343 -418q60 0 60 -30v-15q-56 -38 -150 -239q-197 -179 -343 -179l-15 15l-75 -15q-224 0 -224 149q-30 0 -30 105q-77 0 -89 45z" />
<glyph unicode="6" horiz-adv-x="979" d="M48 429l89 326q25 0 178 252q173 193 415 193q89 -35 89 -104q-30 0 -60 -89h-44l-15 15h-15l15 74v15h-15q-310 0 -518 -578h30q0 95 251 148h60q241 0 311 -222l14 -59h74l30 -30v-15q0 -29 -44 -29q-104 -42 -104 -148q-199 -178 -400 -178q-282 0 -341 429zM152 355 l30 -74h-15q73 -192 222 -192q341 50 341 192l-15 15l-74 -15q-59 23 -59 45v15q0 32 148 44v30q0 48 -89 177h-267q0 -29 -207 -207l-15 -15v-15z" />
<glyph unicode="7" horiz-adv-x="798" d="M43 1178v14h555q157 0 157 -43v-14q-57 -185 -214 -484q100 -11 100 -57v-14l-14 -15v-14l-71 14h-29q-80 -98 -213 -441h28q109 0 128 -57q0 -49 -313 -57q-74 0 -85 43q0 28 142 43l85 213q72 146 72 228q-57 0 -57 28v15l42 42h72l213 470h-14l-57 14h-228l-171 15 q-17 -128 -57 -128h-14q-24 0 -57 185z" />
<glyph unicode="8" horiz-adv-x="818" d="M50 254v15l14 14q43 28 85 169q90 113 126 113v13q-66 72 -154 240l-29 29q66 47 86 197q128 169 295 169q194 -80 268 -267q0 -33 57 -85q-104 -66 -155 -170l-141 -84q0 -39 126 -113q66 -198 99 -198h29v-42q-43 -37 -43 -84q-88 -170 -296 -170q-220 0 -325 212z M178 296q55 -20 55 -42v-14l-28 -42q0 -127 183 -127q221 0 255 141q-71 0 -71 28v29q0 27 56 27q-81 240 -211 240h-14q-133 0 -225 -240zM220 805q60 -150 160 -160q144 -10 248 160l-42 56v14q0 28 42 28l42 -14v14q-66 226 -225 226q-212 0 -212 -198v-28l42 -56v-15 q0 -27 -55 -27z" />
<glyph unicode="9" horiz-adv-x="718" d="M35 941q0 265 334 265q251 -66 251 -195l-28 -348q6 -139 28 -139l42 14l28 -70l-84 -28v-83l-28 -265h70l28 -28v-28l-28 -28h-265l-28 28q0 42 112 42l41 153v42l-13 139l13 14q-83 28 -83 56t83 28l-13 264l13 14h-27q-38 -45 -181 -55q-265 22 -265 208zM119 955 q0 -127 181 -153q150 0 222 237q-50 84 -167 84q-236 0 -236 -140v-28z" />
<glyph unicode=":" horiz-adv-x="287" d="M63 815v24q30 60 97 60h24l24 -24v-36q0 -65 -48 -84q-67 0 -97 60zM99 405v37q19 47 85 47l35 -71q0 -63 -59 -97q-61 16 -61 84z" />
<glyph unicode=";" horiz-adv-x="221" d="M47 777v24q30 58 94 58h23l24 -22v-36q0 -63 -47 -83q-64 0 -94 59zM54 390q7 72 72 72h9q31 0 44 -99v-9q0 -48 -44 -71l-18 18v45q-63 0 -63 44z" />
<glyph unicode="&#x3c;" horiz-adv-x="528" d="M40 473q0 78 101 114q167 242 314 344q35 0 44 -144l-15 -14h-14l-58 43l-229 -258l14 -13v-29l-29 -43l244 -230h14v44h29l44 -58q-15 -114 -44 -114q-167 95 -314 286q-58 0 -58 72h-43z" />
<glyph unicode="=" horiz-adv-x="1461" />
<glyph unicode="&#x3e;" horiz-adv-x="535" d="M39 226v14l43 44q29 0 29 -44h15l229 230l-15 72l15 12l-244 259h-14q0 -44 -29 -44t-29 44q10 115 43 115l358 -374q58 0 58 -84q-58 0 -58 -58q-56 0 -172 -172l-186 -128q-43 8 -43 114z" />
<glyph unicode="?" horiz-adv-x="799" d="M48 867v23l80 113l-12 57q158 137 285 137h22q95 0 251 -137q19 -76 91 -136v-12q0 -22 -57 -22q0 -81 -182 -251q-216 -170 -216 -227v-103q91 -11 91 -45q0 -26 -137 -46q-68 12 -68 34v12q0 23 45 23v68q0 155 182 284q183 149 183 194l22 22v23q-45 0 -45 23v11 q0 31 57 34v12q-95 171 -217 171h-45q-155 0 -216 -194v-23h34v-34l-34 -34h-91zM219 82q0 37 79 79q91 -34 91 -91q0 -34 -68 -68q-69 0 -102 80z" />
<glyph unicode="@" horiz-adv-x="1213" d="M58 541q97 43 101 89l-12 12v11q81 308 360 460l191 34q274 0 392 -292q34 -105 34 -191q56 -2 56 -34q0 -27 -113 -55q0 -73 -212 -146h-34l-157 56l-101 -90h-11q-113 0 -113 180q0 165 168 258q79 0 146 -314l68 -34q83 0 191 113q-57 7 -57 32l34 34h57v91 q-81 324 -326 324h-22q-361 0 -494 -481l34 -45q0 -23 -34 -23q22 -172 146 -314q125 -112 257 -112h23q157 7 157 55l-11 102l11 11h45q11 -99 34 -124v-11q-74 -101 -236 -101h-11q-303 0 -460 371l-23 112h-55zM507 564q6 -102 34 -102q123 65 123 168q0 71 -57 125h-11 q-89 -57 -89 -191z" />
<glyph unicode="A" horiz-adv-x="1138" d="M26 -4v25q0 25 50 25l100 275q-50 0 -50 37q112 42 112 125q17 0 75 187q109 169 212 450q-50 0 -50 25q13 37 75 37h88l37 -37l-50 -38q100 -160 175 -412l25 -25v-12l-13 -12q59 -163 88 -163q62 -3 62 -37q0 -19 -50 -38l100 -362h62l25 -25q0 -49 -149 -49h-63v24 q0 25 50 25v38q-62 349 -137 349h-25v25l37 38q-62 150 -112 150q-97 -10 -137 -50l-38 25l-62 -13l-100 13l-87 -200q50 0 50 -25q0 -20 -88 -50l-87 -262h12l50 12l13 -12v-25q0 -41 -188 -50zM400 658h50q71 0 113 50l37 -38l13 13h112q0 143 -150 362z" />
<glyph unicode="B" horiz-adv-x="1017" d="M38 34l2 24q2 31 112 40l3 206l4 49q-36 2 -34 27l39 45l1 12q11 146 11 237q0 151 -30 153q-47 22 -46 40l63 20l13 191q2 24 -69 54l1 12q3 32 164 72l11 -13l-1 -12l146 14l36 -15l49 8q193 -82 193 -187v-7q48 -4 46 -28l-1 -12l-40 -46l10 -37q-67 -119 -185 -192 l135 14q162 -12 246 -274q46 -9 46 -37t-50 -23l-2 -24q-13 -181 -228 -286q-2 -37 -344 -60l-120 21l-170 1zM220 190q-1 -8 -1 -15q0 -106 124 -115l37 -3q342 31 348 107q87 2 112 198l1 13q-37 2 -35 26l40 46q-48 122 -132 180l-49 3l-304 -13l-11 13l-12 1l-112 -28 q3 -183 35 -185l22 -26l-1 -24q-52 -39 -55 -81zM224 894q60 -4 58 -28v-13q-2 -24 -39 -21l-11 -157q405 62 418 236l1 12l-22 26l16 59q6 86 -319 131l-98 -17l11 -13z" />
<glyph unicode="C" horiz-adv-x="1010" d="M47 583l66 64q45 308 105 308q138 243 354 243q195 0 289 -166q53 0 53 -26l-27 -26h-131v26l26 38q-69 77 -210 77h-52q-106 -7 -250 -179q-92 -197 -92 -321q53 0 53 -26q0 -29 -66 -38v-64q0 -289 118 -372q117 -51 237 -51h13q234 0 302 153h-13q-53 20 -53 39 q8 38 105 38h53l39 -38q-31 0 -144 -180q-189 -77 -250 -77h-118q-215 0 -341 244l13 13v13l-26 102v180q-53 0 -53 26z" />
<glyph unicode="D" horiz-adv-x="1114" d="M53 38l1 12q1 29 86 33l-9 292l17 96q-33 13 -33 66v9l24 -1l-5 134l18 130v231l1 12l16 85l-61 3l-34 38l25 23l12 -13l61 9l49 -2q573 -29 709 -401q67 -125 74 -232q36 -2 35 -26q-51 -43 -134 -249q-237 -288 -542 -288q-16 0 -32 1l-85 4l-72 16l-62 -9l-36 2z M202 347q-4 -77 -4 -132q0 -147 27 -149l85 -4q20 -1 40 -1q323 0 509 277l68 155l1 12q-37 2 -35 26l39 59v13q0 88 -65 136q-27 177 -229 301q-60 40 -324 89l1 13q-98 -8 -99 -32q-11 -301 -11 -439q0 -118 8 -118q36 -2 35 -26l-1 -12l-38 -47z" />
<glyph unicode="E" d="M40 367v12q0 30 64 39v487l13 13v13q-77 0 -77 38q0 29 90 51v90l-13 64l51 26l231 3l462 4h12q39 -8 39 -102v-26l-13 -64h-38l-26 25v39l13 64l-13 -13l-551 6h-77v-39l-13 -89q64 -4 64 -39l-64 -51l-13 -39l13 -51l-13 -154h13q436 0 436 26l25 26q39 -13 39 -77v-39 l-39 -38q-25 0 -25 38h-116l-346 -13v-12q0 -180 51 -180q39 0 39 -26v-12q0 -26 -77 -26v-269l154 -13l526 -4v76l25 26h26l25 -141q-77 -34 -512 -34l-321 13l-13 13l13 218v115q-64 0 -64 26z" />
<glyph unicode="F" d="M36 -13v26q0 38 102 51v255q-89 9 -89 39l25 25h64l13 115l-13 204l13 102q-77 0 -77 26q0 38 77 38v102l13 141l-13 38q49 39 115 39h217l166 12l115 -12l140 25l39 -140l-13 -13h-38q-26 0 -26 76l-524 -25l-114 13v-243l51 -13v-38l-64 -51v-128l345 -13h12 q69 0 77 64h13q51 -20 51 -89v-64l-26 -25l-64 51l-89 -13l-319 25v-191q51 -7 51 -38q-64 -17 -64 -39v-242h38q77 -8 77 -39v-25l-26 -26l-153 26z" />
<glyph unicode="G" horiz-adv-x="1327" d="M42 511q45 37 87 37q0 263 222 544l198 111l12 -12h12l99 12q142 -20 272 -198q37 0 37 -24v-13q-12 -37 -74 -37h-37q-64 0 -74 37q12 50 49 50q-66 99 -173 99l-24 -25l-13 37h-12q-302 0 -420 -470v-99q61 0 61 -24l-61 -62v-12q0 -396 370 -396q384 110 384 433 l-112 12h-99q-24 0 -24 -37l-13 -12h-24l-37 37v49q7 74 37 74q37 0 37 -49l62 12h123q136 0 136 -37l-25 -284q0 -116 99 -198h62l74 74l25 -49q0 -82 -161 -99q-160 67 -160 235h-13q-208 -223 -358 -223h-161q-157 53 -210 173q-86 205 -86 309h-62z" />
<glyph unicode="H" horiz-adv-x="1163" d="M52 22v12q0 25 74 25l13 37l-13 421l25 607h-12l-50 49v13h74l75 12l49 -37v-13q0 -24 -74 -24v-434l-12 -12v-12l61 12h87l186 12l-13 62l13 13h12l62 -62h37v12l273 -37l37 334q0 119 -75 119q-49 0 -49 25l25 37l37 -12l203 15l12 -13v-12q-17 -42 -52 -42q-7 0 -15 2 h-37v-342l-12 -222l25 -186l-25 -322h12l60 12l12 -12v-25q0 -37 -146 -37h-25l-25 25q0 25 38 25l12 12v37l12 322l-24 198l-322 25v-12q0 -62 -25 -62h-12q-25 0 -25 62l-149 -25l-124 12l-61 -12l12 -372l-12 -161q61 -15 61 -37v-12q-12 -37 -74 -37h-99z" />
<glyph unicode="I" horiz-adv-x="565" d="M23 1146q35 35 126 51l114 -13l227 13l37 -51v-50q0 -65 -37 -76q-26 0 -26 101l-37 13l-127 -25v-316q0 -122 64 -176q0 -26 -51 -26l-13 -37l13 -328v-114l-13 -12v-13l13 -13h108q26 0 26 51h37l13 -88q-49 -26 -159 -26h-247l-38 38v38l26 25h12q26 0 26 -38h95 q38 8 38 89q0 240 -25 378l12 13l-12 37q-51 0 -51 26q0 28 63 38v302q0 152 -37 152l-89 12q-16 -63 -38 -63h-25z" />
<glyph unicode="J" horiz-adv-x="1078" d="M61 241q0 25 76 38q138 -10 138 -38q0 -38 -63 -38q59 -126 152 -126h75q113 0 164 214l13 139v139q0 25 -38 25l-13 13v12q0 26 38 26v340q0 151 -25 151q-151 0 -227 26q-16 -76 -38 -76l-25 25v114l214 -13l127 13l100 -26l265 10q51 -25 51 -75q-8 -101 -38 -101 l-63 101l-63 12l-51 -12l-176 15q12 -492 38 -492q63 -3 63 -38l-26 -25h-12l-13 13h-12l-13 -13v-13l13 -151q-26 -243 -114 -353q-72 -63 -126 -63h-50q-183 0 -240 151z" />
<glyph unicode="K" horiz-adv-x="1093" d="M75 1162l1 13q1 22 115 31q113 -21 112 -44l-1 -12q-1 -22 -57 -22q-9 0 -20 1l-3 -50l-15 -49q31 -209 32 -323q0 -22 -2 -40q369 297 518 468l-23 39l27 24l113 -6l24 -27l-412 -387l-172 -140l-1 -13q302 -244 481 -437q109 -123 232 -130l12 -13l-1 -13 q-2 -25 -177 -25h-39l-23 38l63 9q-158 168 -589 524l-13 -12l-12 1l-13 -275l-7 -137v-8q0 -79 20 -80l38 10l24 -38q-3 -38 -154 -42l-14 -12l-47 65q2 22 58 22q9 0 19 -1l-12 13l9 149q11 135 11 273q0 308 -53 629q-50 2 -49 27z" />
<glyph unicode="L" horiz-adv-x="882" d="M41 1172l26 26h155l26 -26v-26l-52 -13v-413q52 0 52 -26v-13q0 -26 -39 -26q10 -42 10 -139q0 -60 -4 -142v-65l-16 -220l39 -25l514 10q0 64 26 64h13l25 -26v-77l-25 -39l-233 13l-243 -23q-194 9 -194 52l36 436v142q0 26 -51 26l-13 13v13q0 26 38 26v439 q-90 9 -90 39z" />
<glyph unicode="M" horiz-adv-x="1326" d="M50 3v13l39 38h64l51 1080q-64 0 -64 25q0 39 218 52l13 -13v-26q0 -25 -51 -25l154 -142q0 -36 90 -64v-13l-26 -38q103 -96 103 -129l116 116l-26 38v13q94 0 206 167l38 39l-25 38q50 26 141 26h26l38 -39q0 -25 -64 -25q51 -238 128 -1080q52 0 52 -25 q-17 -52 -116 -52h-51l-39 39v25h90l-115 1054q-27 0 -180 -180q51 0 51 -25q0 -17 -129 -52l-77 -115q39 0 39 -26l-13 -13h-90q-67 0 -77 39l26 25q-52 27 -52 64q-46 65 -77 65l-38 -13l-13 13v13l26 38l-155 154q-64 -557 -64 -912v-103q64 0 64 -26q0 -51 -218 -51z " />
<glyph unicode="N" horiz-adv-x="1140" d="M45 7q0 32 50 48l-12 696v139l12 244q-50 19 -50 38v13q0 29 88 37l63 -12l38 12l13 -37l-13 -38h13q109 -218 176 -282q0 -42 129 -184q0 -29 88 -51v-25h-25v-13q10 -25 338 -498h13v178q0 337 -38 757l12 138h-12q-63 0 -63 25q0 41 189 41l38 -13v-15l-25 -25h-38 l-13 12h-13l-12 -151v-151l25 -139v-366q20 -309 71 -354v-26h-121l-63 -12l-13 12v13l25 38q-294 368 -363 536h-101v26q0 25 38 25v12q-73 91 -197 305q-39 0 -108 162h-25l-13 -308q10 -746 25 -766q76 0 76 -48h-129q-29 -6 -47 -6q-26 0 -26 13z" />
<glyph unicode="O" horiz-adv-x="1108" d="M47 600v24q0 24 49 24q96 562 378 562h147q282 0 366 -452q0 -134 61 -171v-12q0 -24 -49 -24q-93 -440 -183 -440q-102 -122 -220 -122h-61q-341 75 -341 342q-74 94 -74 147v97q-73 0 -73 25zM181 575q0 -126 98 -329q0 -110 281 -208q220 76 220 147q146 89 146 366 h-12q-61 0 -61 24v25q0 24 73 24v37l12 110l-73 183q-37 113 -147 183l-61 24l-170 -12h-62q-244 -183 -244 -439v-62q61 -8 61 -36v-12q0 -25 -61 -25z" />
<glyph unicode="P" horiz-adv-x="964" d="M36 16l39 38h64v220l-13 64l13 52l-13 348l26 387l-39 13l-12 -13h-26l-39 39l39 39l51 -13l323 13q387 -53 387 -284l60 13l26 -39l-39 -39h-47q0 -218 -361 -335l-52 13l-155 -26l-51 13l-13 -452l129 3h26l25 -26v-13q0 -31 -180 -41l-13 -13l-26 26l-64 -13h-39z M204 583h168q280 0 387 220v39q-91 0 -91 38q30 26 91 26v13q0 189 -310 219l-219 -13l-13 -90v-103z" />
<glyph unicode="Q" horiz-adv-x="1064" d="M52 546v24q71 44 71 286q123 345 453 345q239 0 370 -381q30 -155 47 -155q36 0 36 -24v-24q0 -24 -71 -24v-95q-47 -198 -203 -357l83 -191h24l143 36l12 -12v-12q-43 -72 -143 -72h-59q-108 82 -108 191h-12q-98 -83 -214 -83q-221 0 -358 357q0 183 -71 191zM159 748 l12 -143l12 12h12q48 -18 48 -35v-24q0 -24 -72 -24v-24q0 -297 155 -393q87 -12 143 -60h60l143 84q0 29 -131 71l-12 12v12l12 12h11q116 0 167 -60q179 163 179 405q-60 0 -60 24v12q0 27 60 36v36q-74 441 -381 441q-262 -78 -262 -179q-29 0 -96 -215z" />
<glyph unicode="R" horiz-adv-x="1101" d="M35 36v13q0 26 65 26l26 519v169q-39 0 -39 26v26q0 26 39 26l13 13v207l13 13v13q-78 0 -78 26q29 78 337 78h13q331 0 442 -259l25 -26v-26q0 -26 -64 -26q0 -124 -273 -247l-104 -26q169 -130 169 -233q30 -12 104 -182l91 -104h52q84 0 116 78q-65 0 -65 39v13l26 26 h91l26 -26q0 -175 -182 -208h-38q-132 0 -325 441q-86 104 -156 104h-129q-47 0 -52 -415l-13 -13q91 0 91 -39q-49 -45 -130 -65q-91 13 -91 39zM204 607q401 0 558 247q-52 0 -52 26q0 52 65 52q0 133 -338 194h-39q-194 0 -194 -104v-168q39 0 39 -26v-13l-39 -52v-156z " />
<glyph unicode="S" horiz-adv-x="980" d="M50 220q21 52 90 52h78q77 -8 77 -39q0 -25 -77 -51v-13q0 -47 207 -91h25q337 0 384 171l-7 65q-85 320 -222 320l-25 -26h-13q-42 79 -233 142q-90 89 -90 142q0 323 297 323q294 0 336 -246q51 0 51 -25v-13l-39 -39h-103l-26 26l39 51q0 168 -284 168h-65 q-142 -49 -142 -245q0 -66 233 -155l39 39q21 0 38 -78q166 0 260 -293l30 -88q-22 -303 -277 -303l-77 -13h-142q-259 49 -259 129q-22 0 -26 64q-77 0 -77 26z" />
<glyph unicode="T" horiz-adv-x="1047" d="M32 1183q32 20 323 29l452 -16l168 13l26 -26q-10 -168 -39 -168h-13l-26 26v78h-387l13 -168l-13 -297h13q51 0 51 -26q-64 -72 -64 -181v-375q64 0 64 -25v-26l-26 -26h-142l-25 26v13q64 50 64 103v413q0 22 -77 52v13q77 36 77 245v181l-13 90h-77l-259 -12v-65 l-38 -39h-13q-39 0 -39 168z" />
<glyph unicode="U" horiz-adv-x="1108" d="M50 1165q0 27 247 44q54 -20 64 -31v-13q0 -30 -135 -54v-324q0 -172 81 -203l-68 -68q65 -445 243 -445h54q257 0 257 175q35 36 68 284l-14 -14h-13l-28 27v14q0 31 68 41l14 502v27h-109l-40 41l27 27h68l148 13q54 -20 54 -40v-14q0 -27 -54 -27l-13 -13v-41l13 -97 l-40 -365q67 0 67 -27v-14q0 -22 -81 -40q-19 -486 -189 -486q0 -37 -203 -54h-40q-208 0 -311 364q-10 176 -27 176l-40 40v28h40l-27 337v189q-81 0 -81 41z" />
<glyph unicode="V" horiz-adv-x="1294" d="M16 1120v27q22 54 94 54h162l27 -27q-27 -54 -81 -54q143 -327 176 -351q8 -80 54 -135l67 14h14l27 -27v-14l-68 -54q89 -273 203 -391h13l149 486q-54 0 -54 40q0 27 81 27q135 300 135 401h-68l-40 41q47 40 270 40q67 -9 67 -40q0 -37 -148 -54q-58 -108 -122 -361 l27 -40v-14q0 -40 -81 -40q-67 -304 -202 -648h-14q-74 0 -310 567q-68 0 -68 27l14 67l-14 14h-13l13 13v14l-202 418l-95 -14z" />
<glyph unicode="W" horiz-adv-x="1786" d="M40 1108v42q0 41 125 41l55 -14l69 14l14 -14v-27q0 -42 -69 -42q0 -157 111 -457q83 -8 83 -41q0 -28 -56 -28l-14 -14v-14l97 -415q104 87 333 415l-42 14v42l42 13q166 -10 166 -41q0 -28 -42 -28l277 -415q83 198 139 457l-28 27q85 1 235 471h-13q-42 0 -42 28v14 q0 32 235 41l14 -13v-28q0 -42 -110 -42l-167 -415q83 0 83 -28q-26 -50 -83 -69l-41 14v-14q-83 -215 -83 -305q-94 -245 -139 -290q-37 0 -138 235l-208 263l-388 -485h-13q-42 0 -180 554q-42 0 -42 28v14l42 41l-125 485l-83 -28z" />
<glyph unicode="X" horiz-adv-x="1206" d="M53 1172l47 43h204l47 -43l-63 -29q10 -89 89 -144l157 -229h31q61 18 319 358q-79 18 -79 42q0 19 126 33q141 -4 141 -33v-14l-126 -57q0 -48 -298 -372l-20 -14l36 14h31l12 -28v-29q0 -29 -63 -29l439 -572q63 0 63 -28v-29l-31 -28l-79 14l-94 -14l-16 14v28 q0 29 47 29l-329 443q-47 0 -79 86h-15l-339 -525h16l63 15l16 -15v-14l-63 -57h-142l-31 28v15q71 32 401 596q-63 21 -63 43v14l16 15l47 14v14q-270 416 -355 416q-63 0 -63 29z" />
<glyph unicode="Y" horiz-adv-x="1078" d="M37 1147l39 39h142l26 -26q0 -29 -65 -39v-12q86 -13 233 -207l90 -65h13l284 284l-13 65v13l129 13v-13l65 26l26 -39q-70 0 -401 -349q-64 -79 -64 -155q5 -193 26 -193l90 25l13 -13v-25q0 -34 -91 -52v-349q78 0 78 -26v-12q0 -30 -181 -39q-64 16 -64 39v38h77v310 l-65 65q0 26 52 26v206q0 78 -207 272q0 42 -232 193z" />
<glyph unicode="Z" horiz-adv-x="1025" d="M57 1061v102q0 38 232 38h117q490 0 490 -51v-13q-51 -98 -361 -457v-12q52 0 52 -26q-2 -39 -104 -76l-317 -508l13 -13q185 33 368 33q58 0 117 -3l39 -12q206 0 206 89h13q26 0 39 -102l-26 -61l-64 13l-744 -20h-38l-26 25l304 521l13 51h-52v38q0 38 104 38 q90 136 361 432l13 12v13l-284 13h-388v-64l-25 -25h-26z" />
<glyph unicode="[" horiz-adv-x="374" d="M1 605q0 18 54 18l-18 250q6 321 62 321h72l107 18q40 -17 44 -36l-26 -26l9 -45v-9l-18 -18h-18l-18 18l18 54h-63q-89 0 -89 -117q-18 -40 -18 -116v-35q0 -250 45 -250q36 -5 36 -27q0 -36 -63 -36l-9 -178v-349q134 0 134 36q0 26 36 45q35 -66 35 -116v-9l-8 -9v-9 l-90 9h-35l-99 -9q-30 0 -44 62l9 322v205q-27 0 -45 36z" />
<glyph unicode="\" horiz-adv-x="876" />
<glyph unicode="]" horiz-adv-x="385" d="M28 7l9 44l-9 54l9 9h36q17 0 17 -72l9 9l36 -9q107 0 107 188l9 80q0 259 -53 259h-27v27q0 23 62 36v428l9 90h-134l-35 -63h-9q-32 0 -36 107l18 18l98 -9l143 9q16 -16 27 -107l-18 -223l9 -241l-9 -9q41 -18 44 -36v-9l-17 -18l-36 9q18 -86 18 -241v-89 q0 -250 -63 -250h-98l-80 -18z" />
<glyph unicode="^" horiz-adv-x="434" />
<glyph unicode="_" horiz-adv-x="1505" />
<glyph unicode="`" horiz-adv-x="498" />
<glyph unicode="a" horiz-adv-x="1138" d="M26 15v24q0 25 49 25l99 271q-50 0 -50 36q111 41 111 123q16 0 73 184q108 166 209 443q-49 0 -49 25q13 36 74 36h86l37 -36l-49 -38q98 -157 172 -405l24 -25v-12l-12 -12q58 -160 86 -160q61 -3 61 -36q0 -19 -49 -38l98 -356h61l25 -25q0 -48 -147 -48h-62v24 q0 24 50 24v38q-61 343 -135 343h-25v25l37 37q-61 148 -111 148q-95 -10 -135 -49l-37 24l-61 -13l-98 13l-86 -197q49 0 49 -24q0 -20 -86 -49l-86 -258h12l49 12l13 -12v-25q0 -40 -185 -49zM394 666h49q70 0 111 50l37 -38l13 13h110q0 141 -148 356z" />
<glyph unicode="b" horiz-adv-x="1017" d="M38 34l2 24q2 31 112 40l3 206l4 49q-36 2 -34 27l39 45l1 12q11 146 11 237q0 151 -30 153q-47 22 -46 40l63 20l13 191q2 24 -69 54l1 12q3 32 164 72l11 -13l-1 -12l146 14l36 -15l49 8q193 -82 193 -187v-7q48 -4 46 -28l-1 -12l-40 -46l10 -37q-67 -119 -185 -192 l135 14q162 -12 246 -274q46 -9 46 -37t-50 -23l-2 -24q-13 -181 -228 -286q-2 -37 -344 -60l-120 21l-170 1zM220 190q-1 -8 -1 -15q0 -106 124 -115l37 -3q342 31 348 107q87 2 112 198l1 13q-37 2 -35 26l40 46q-48 122 -132 180l-49 3l-304 -13l-11 13l-12 1l-112 -28 q3 -183 35 -185l22 -26l-1 -24q-52 -39 -55 -81zM224 894q60 -4 58 -28v-13q-2 -24 -39 -21l-11 -157q405 62 418 236l1 12l-22 26l16 59q6 86 -319 131l-98 -17l11 -13z" />
<glyph unicode="c" horiz-adv-x="1010" d="M47 583l66 64q45 308 105 308q138 243 354 243q195 0 289 -166q53 0 53 -26l-27 -26h-131v26l26 38q-69 77 -210 77h-52q-106 -7 -250 -179q-92 -197 -92 -321q53 0 53 -26q0 -29 -66 -38v-64q0 -289 118 -372q117 -51 237 -51h13q234 0 302 153h-13q-53 20 -53 39 q8 38 105 38h53l39 -38q-31 0 -144 -180q-189 -77 -250 -77h-118q-215 0 -341 244l13 13v13l-26 102v180q-53 0 -53 26z" />
<glyph unicode="d" horiz-adv-x="1114" d="M53 38l1 12q1 29 86 33l-9 292l17 96q-33 13 -33 66v9l24 -1l-5 134l18 130v231l1 12l16 85l-61 3l-34 38l25 23l12 -13l61 9l49 -2q573 -29 709 -401q67 -125 74 -232q36 -2 35 -26q-51 -43 -134 -249q-237 -288 -542 -288q-16 0 -32 1l-85 4l-72 16l-62 -9l-36 2z M202 347q-4 -77 -4 -132q0 -147 27 -149l85 -4q20 -1 40 -1q323 0 509 277l68 155l1 12q-37 2 -35 26l39 59v13q0 88 -65 136q-27 177 -229 301q-60 40 -324 89l1 13q-98 -8 -99 -32q-11 -301 -11 -439q0 -118 8 -118q36 -2 35 -26l-1 -12l-38 -47z" />
<glyph unicode="e" d="M40 367v12q0 30 64 39v487l13 13v13q-77 0 -77 38q0 29 90 51v90l-13 64l51 26l231 3l462 4h12q39 -8 39 -102v-26l-13 -64h-38l-26 25v39l13 64l-13 -13l-551 6h-77v-39l-13 -89q64 -4 64 -39l-64 -51l-13 -39l13 -51l-13 -154h13q436 0 436 26l25 26q39 -13 39 -77v-39 l-39 -38q-25 0 -25 38h-116l-346 -13v-12q0 -180 51 -180q39 0 39 -26v-12q0 -26 -77 -26v-269l154 -13l526 -4v76l25 26h26l25 -141q-77 -34 -512 -34l-321 13l-13 13l13 218v115q-64 0 -64 26z" />
<glyph unicode="f" d="M36 -13v26q0 38 102 51v255q-89 9 -89 39l25 25h64l13 115l-13 204l13 102q-77 0 -77 26q0 38 77 38v102l13 141l-13 38q49 39 115 39h217l166 12l115 -12l140 25l39 -140l-13 -13h-38q-26 0 -26 76l-524 -25l-114 13v-243l51 -13v-38l-64 -51v-128l345 -13h12 q69 0 77 64h13q51 -20 51 -89v-64l-26 -25l-64 51l-89 -13l-319 25v-191q51 -7 51 -38q-64 -17 -64 -39v-242h38q77 -8 77 -39v-25l-26 -26l-153 26z" />
<glyph unicode="g" horiz-adv-x="1327" d="M42 511q45 37 87 37q0 263 222 544l198 111l12 -12h12l99 12q142 -20 272 -198q37 0 37 -24v-13q-12 -37 -74 -37h-37q-64 0 -74 37q12 50 49 50q-66 99 -173 99l-24 -25l-13 37h-12q-302 0 -420 -470v-99q61 0 61 -24l-61 -62v-12q0 -396 370 -396q384 110 384 433 l-112 12h-99q-24 0 -24 -37l-13 -12h-24l-37 37v49q7 74 37 74q37 0 37 -49l62 12h123q136 0 136 -37l-25 -284q0 -116 99 -198h62l74 74l25 -49q0 -82 -161 -99q-160 67 -160 235h-13q-208 -223 -358 -223h-161q-157 53 -210 173q-86 205 -86 309h-62z" />
<glyph unicode="h" horiz-adv-x="1163" d="M52 22v12q0 25 74 25l13 37l-13 421l25 607h-12l-50 49v13h74l75 12l49 -37v-13q0 -24 -74 -24v-434l-12 -12v-12l61 12h87l186 12l-13 62l13 13h12l62 -62h37v12l273 -37l37 334q0 119 -75 119q-49 0 -49 25l25 37l37 -12l203 15l12 -13v-12q-17 -42 -52 -42q-7 0 -15 2 h-37v-342l-12 -222l25 -186l-25 -322h12l60 12l12 -12v-25q0 -37 -146 -37h-25l-25 25q0 25 38 25l12 12v37l12 322l-24 198l-322 25v-12q0 -62 -25 -62h-12q-25 0 -25 62l-149 -25l-124 12l-61 -12l12 -372l-12 -161q61 -15 61 -37v-12q-12 -37 -74 -37h-99z" />
<glyph unicode="i" horiz-adv-x="565" d="M23 1146q35 35 126 51l114 -13l227 13l37 -51v-50q0 -65 -37 -76q-26 0 -26 101l-37 13l-127 -25v-316q0 -122 64 -176q0 -26 -51 -26l-13 -37l13 -328v-114l-13 -12v-13l13 -13h108q26 0 26 51h37l13 -88q-49 -26 -159 -26h-247l-38 38v38l26 25h12q26 0 26 -38h95 q38 8 38 89q0 240 -25 378l12 13l-12 37q-51 0 -51 26q0 28 63 38v302q0 152 -37 152l-89 12q-16 -63 -38 -63h-25z" />
<glyph unicode="j" horiz-adv-x="1078" d="M61 241q0 25 76 38q138 -10 138 -38q0 -38 -63 -38q59 -126 152 -126h75q113 0 164 214l13 139v139q0 25 -38 25l-13 13v12q0 26 38 26v340q0 151 -25 151q-151 0 -227 26q-16 -76 -38 -76l-25 25v114l214 -13l127 13l100 -26l265 10q51 -25 51 -75q-8 -101 -38 -101 l-63 101l-63 12l-51 -12l-176 15q12 -492 38 -492q63 -3 63 -38l-26 -25h-12l-13 13h-12l-13 -13v-13l13 -151q-26 -243 -114 -353q-72 -63 -126 -63h-50q-183 0 -240 151z" />
<glyph unicode="k" horiz-adv-x="1093" d="M75 1162l1 13q1 22 115 31q113 -21 112 -44l-1 -12q-1 -22 -57 -22q-9 0 -20 1l-3 -50l-15 -49q31 -209 32 -323q0 -22 -2 -40q369 297 518 468l-23 39l27 24l113 -6l24 -27l-412 -387l-172 -140l-1 -13q302 -244 481 -437q109 -123 232 -130l12 -13l-1 -13 q-2 -25 -177 -25h-39l-23 38l63 9q-158 168 -589 524l-13 -12l-12 1l-13 -275l-7 -137v-8q0 -79 20 -80l38 10l24 -38q-3 -38 -154 -42l-14 -12l-47 65q2 22 58 22q9 0 19 -1l-12 13l9 149q11 135 11 273q0 308 -53 629q-50 2 -49 27z" />
<glyph unicode="l" horiz-adv-x="882" d="M41 1172l26 26h155l26 -26v-26l-52 -13v-413q52 0 52 -26v-13q0 -26 -39 -26q10 -42 10 -139q0 -60 -4 -142v-65l-16 -220l39 -25l514 10q0 64 26 64h13l25 -26v-77l-25 -39l-233 13l-243 -23q-194 9 -194 52l36 436v142q0 26 -51 26l-13 13v13q0 26 38 26v439 q-90 9 -90 39z" />
<glyph unicode="m" horiz-adv-x="1326" d="M50 3v13l39 38h64l51 1080q-64 0 -64 25q0 39 218 52l13 -13v-26q0 -25 -51 -25l154 -142q0 -36 90 -64v-13l-26 -38q103 -96 103 -129l116 116l-26 38v13q94 0 206 167l38 39l-25 38q50 26 141 26h26l38 -39q0 -25 -64 -25q51 -238 128 -1080q52 0 52 -25 q-17 -52 -116 -52h-51l-39 39v25h90l-115 1054q-27 0 -180 -180q51 0 51 -25q0 -17 -129 -52l-77 -115q39 0 39 -26l-13 -13h-90q-67 0 -77 39l26 25q-52 27 -52 64q-46 65 -77 65l-38 -13l-13 13v13l26 38l-155 154q-64 -557 -64 -912v-103q64 0 64 -26q0 -51 -218 -51z " />
<glyph unicode="n" horiz-adv-x="1140" d="M45 7q0 32 50 48l-12 696v139l12 244q-50 19 -50 38v13q0 29 88 37l63 -12l38 12l13 -37l-13 -38h13q109 -218 176 -282q0 -42 129 -184q0 -29 88 -51v-25h-25v-13q10 -25 338 -498h13v178q0 337 -38 757l12 138h-12q-63 0 -63 25q0 41 189 41l38 -13v-15l-25 -25h-38 l-13 12h-13l-12 -151v-151l25 -139v-366q20 -309 71 -354v-26h-121l-63 -12l-13 12v13l25 38q-294 368 -363 536h-101v26q0 25 38 25v12q-73 91 -197 305q-39 0 -108 162h-25l-13 -308q10 -746 25 -766q76 0 76 -48h-129q-29 -6 -47 -6q-26 0 -26 13z" />
<glyph unicode="o" horiz-adv-x="1108" d="M47 600v24q0 24 49 24q96 562 378 562h147q282 0 366 -452q0 -134 61 -171v-12q0 -24 -49 -24q-93 -440 -183 -440q-102 -122 -220 -122h-61q-341 75 -341 342q-74 94 -74 147v97q-73 0 -73 25zM181 575q0 -126 98 -329q0 -110 281 -208q220 76 220 147q146 89 146 366 h-12q-61 0 -61 24v25q0 24 73 24v37l12 110l-73 183q-37 113 -147 183l-61 24l-170 -12h-62q-244 -183 -244 -439v-62q61 -8 61 -36v-12q0 -25 -61 -25z" />
<glyph unicode="p" horiz-adv-x="964" d="M36 16l39 38h64v220l-13 64l13 52l-13 348l26 387l-39 13l-12 -13h-26l-39 39l39 39l51 -13l323 13q387 -53 387 -284l60 13l26 -39l-39 -39h-47q0 -218 -361 -335l-52 13l-155 -26l-51 13l-13 -452l129 3h26l25 -26v-13q0 -31 -180 -41l-13 -13l-26 26l-64 -13h-39z M204 583h168q280 0 387 220v39q-91 0 -91 38q30 26 91 26v13q0 189 -310 219l-219 -13l-13 -90v-103z" />
<glyph unicode="q" horiz-adv-x="1064" d="M52 546v24q71 44 71 286q123 345 453 345q239 0 370 -381q30 -155 47 -155q36 0 36 -24v-24q0 -24 -71 -24v-95q-47 -198 -203 -357l83 -191h24l143 36l12 -12v-12q-43 -72 -143 -72h-59q-108 82 -108 191h-12q-98 -83 -214 -83q-221 0 -358 357q0 183 -71 191zM159 748 l12 -143l12 12h12q48 -18 48 -35v-24q0 -24 -72 -24v-24q0 -297 155 -393q87 -12 143 -60h60l143 84q0 29 -131 71l-12 12v12l12 12h11q116 0 167 -60q179 163 179 405q-60 0 -60 24v12q0 27 60 36v36q-74 441 -381 441q-262 -78 -262 -179q-29 0 -96 -215z" />
<glyph unicode="r" horiz-adv-x="1101" d="M35 36v13q0 26 65 26l26 519v169q-39 0 -39 26v26q0 26 39 26l13 13v207l13 13v13q-78 0 -78 26q29 78 337 78h13q331 0 442 -259l25 -26v-26q0 -26 -64 -26q0 -124 -273 -247l-104 -26q169 -130 169 -233q30 -12 104 -182l91 -104h52q84 0 116 78q-65 0 -65 39v13l26 26 h91l26 -26q0 -175 -182 -208h-38q-132 0 -325 441q-86 104 -156 104h-129q-47 0 -52 -415l-13 -13q91 0 91 -39q-49 -45 -130 -65q-91 13 -91 39zM204 607q401 0 558 247q-52 0 -52 26q0 52 65 52q0 133 -338 194h-39q-194 0 -194 -104v-168q39 0 39 -26v-13l-39 -52v-156z " />
<glyph unicode="s" horiz-adv-x="980" d="M50 220q21 52 90 52h78q77 -8 77 -39q0 -25 -77 -51v-13q0 -47 207 -91h25q337 0 384 171l-7 65q-85 320 -222 320l-25 -26h-13q-42 79 -233 142q-90 89 -90 142q0 323 297 323q294 0 336 -246q51 0 51 -25v-13l-39 -39h-103l-26 26l39 51q0 168 -284 168h-65 q-142 -49 -142 -245q0 -66 233 -155l39 39q21 0 38 -78q166 0 260 -293l30 -88q-22 -303 -277 -303l-77 -13h-142q-259 49 -259 129q-22 0 -26 64q-77 0 -77 26z" />
<glyph unicode="t" horiz-adv-x="1047" d="M32 1183q32 20 323 29l452 -16l168 13l26 -26q-10 -168 -39 -168h-13l-26 26v78h-387l13 -168l-13 -297h13q51 0 51 -26q-64 -72 -64 -181v-375q64 0 64 -25v-26l-26 -26h-142l-25 26v13q64 50 64 103v413q0 22 -77 52v13q77 36 77 245v181l-13 90h-77l-259 -12v-65 l-38 -39h-13q-39 0 -39 168z" />
<glyph unicode="u" horiz-adv-x="1108" d="M50 1165q0 27 247 44q54 -20 64 -31v-13q0 -30 -135 -54v-324q0 -172 81 -203l-68 -68q65 -445 243 -445h54q257 0 257 175q35 36 68 284l-14 -14h-13l-28 27v14q0 31 68 41l14 502v27h-109l-40 41l27 27h68l148 13q54 -20 54 -40v-14q0 -27 -54 -27l-13 -13v-41l13 -97 l-40 -365q67 0 67 -27v-14q0 -22 -81 -40q-19 -486 -189 -486q0 -37 -203 -54h-40q-208 0 -311 364q-10 176 -27 176l-40 40v28h40l-27 337v189q-81 0 -81 41z" />
<glyph unicode="v" horiz-adv-x="1294" d="M16 1120v27q22 54 94 54h162l27 -27q-27 -54 -81 -54q143 -327 176 -351q8 -80 54 -135l67 14h14l27 -27v-14l-68 -54q89 -273 203 -391h13l149 486q-54 0 -54 40q0 27 81 27q135 300 135 401h-68l-40 41q47 40 270 40q67 -9 67 -40q0 -37 -148 -54q-58 -108 -122 -361 l27 -40v-14q0 -40 -81 -40q-67 -304 -202 -648h-14q-74 0 -310 567q-68 0 -68 27l14 67l-14 14h-13l13 13v14l-202 418l-95 -14z" />
<glyph unicode="w" horiz-adv-x="1786" d="M40 1108v42q0 41 125 41l55 -14l69 14l14 -14v-27q0 -42 -69 -42q0 -157 111 -457q83 -8 83 -41q0 -28 -56 -28l-14 -14v-14l97 -415q104 87 333 415l-42 14v42l42 13q166 -10 166 -41q0 -28 -42 -28l277 -415q83 198 139 457l-28 27q85 1 235 471h-13q-42 0 -42 28v14 q0 32 235 41l14 -13v-28q0 -42 -110 -42l-167 -415q83 0 83 -28q-26 -50 -83 -69l-41 14v-14q-83 -215 -83 -305q-94 -245 -139 -290q-37 0 -138 235l-208 263l-388 -485h-13q-42 0 -180 554q-42 0 -42 28v14l42 41l-125 485l-83 -28z" />
<glyph unicode="x" horiz-adv-x="1206" d="M53 1172l47 43h204l47 -43l-63 -29q10 -89 89 -144l157 -229h31q61 18 319 358q-79 18 -79 42q0 19 126 33q141 -4 141 -33v-14l-126 -57q0 -48 -298 -372l-20 -14l36 14h31l12 -28v-29q0 -29 -63 -29l439 -572q63 0 63 -28v-29l-31 -28l-79 14l-94 -14l-16 14v28 q0 29 47 29l-329 443q-47 0 -79 86h-15l-339 -525h16l63 15l16 -15v-14l-63 -57h-142l-31 28v15q71 32 401 596q-63 21 -63 43v14l16 15l47 14v14q-270 416 -355 416q-63 0 -63 29z" />
<glyph unicode="y" horiz-adv-x="1078" d="M37 1147l39 39h142l26 -26q0 -29 -65 -39v-12q86 -13 233 -207l90 -65h13l284 284l-13 65v13l129 13v-13l65 26l26 -39q-70 0 -401 -349q-64 -79 -64 -155q5 -193 26 -193l90 25l13 -13v-25q0 -34 -91 -52v-349q78 0 78 -26v-12q0 -30 -181 -39q-64 16 -64 39v38h77v310 l-65 65q0 26 52 26v206q0 78 -207 272q0 42 -232 193z" />
<glyph unicode="z" horiz-adv-x="1025" d="M57 1061v102q0 38 232 38h117q490 0 490 -51v-13q-51 -98 -361 -457v-12q52 0 52 -26q-2 -39 -104 -76l-317 -508l13 -13q185 33 368 33q58 0 117 -3l39 -12q206 0 206 89h13q26 0 39 -102l-26 -61l-64 13l-744 -20h-38l-26 25l304 521l13 51h-52v38q0 38 104 38 q90 136 361 432l13 12v13l-284 13h-388v-64l-25 -25h-26z" />
<glyph unicode="&#x25fc;" horiz-adv-x="1215" d="M0 0v1215h1215v-1215h-1215z" />
</font>
</defs>
</svg>
